<svg id="Layer_1" data-name="Layer 1" xmlns="http://www.w3.org/2000/svg" viewBox="0 0 560 560">
  <title>Sempernow Logo</title>
  <style>.logo-s {fill: #c6b305;}</style>
  <g fill="#c6b305">
    <path d="M279.36,119.29c12.9,7.86,25,15.5,37.53,22.8a87.35,87.35,0,0,0,42.27,11.63c16.37.39,30.46-3.75,40.5-12.84,4.5-4.07,8.16-4.57,13.19-.95a24.46,24.46,0,0,0,2.82,1.56c16.31,8.62,16.18,5.67,4.77,17.86a131,131,0,0,1-66.69,39.05c-30.59,7.46-60.51,5.38-88.54-5.67-12.28-4.83-23.31-11.16-36.23-17.46-2.88,2.83-7.13,5.85-9.46,9.47-16.91,26.26-3.57,61.85,46.75,72,13.68,2.77,28,5.94,41.76,1.64a128,128,0,0,0,27.21-12.65c7.22-4.32,12.88-9.91,18.93-15.1,2.89-2.49,6.06-3,10.16-2,40.62,10.48,69.47,29.09,82.44,58,12.83,28.57,5.49,54.94-21.1,78.59C408,381,384.76,392.42,361,403.36c-26.48,12.17-52.63,24.67-79.36,37.24-11-5.85-22.95-12.86-35.83-19-17.45-8.29-36.16-14.4-58.34-14.18-17.38.18-30.94,5.74-43.51,12.94-15,8.58-15,8.91-31.38,1.67-10.64-4.69-11.57-2.52-3.73-11.42,21.73-24.67,51.34-43.13,91.14-53,18.4-4.56,37.45-5.44,57.1-3.86,29.65,2.39,50.24,14.32,68.62,28.88,4.15,3.29,7,3.4,11,.32C374.79,353.47,358,307.32,304.6,296c-29.64-6.29-56.37-1.85-78.6,13.19-8.4,5.68-15.33,12.38-23.32,18.37-1.67,1.25-5.7,2.47-7.56,1.93-32.86-9.51-59.72-24-71.81-47.75C107.79,251.2,114.7,222.46,143,196.3c19.7-18.23,46.22-31,72.82-43.77,16.05-7.7,32.15-15.36,47.92-23.33C269.45,126.29,274.28,122.55,279.36,119.29Z"/>
  </g>
</svg>
